# xmcd
#
# Track frame offsets: 
#        150
#        26940
#        48387
#        71267
#        94000
#        118380
#        140035
#        141605
#        166985
#        191705
#
# Disc length: 2964 seconds
#
# Revision: 1
# Processed by: cddbd v1.5.1PL0 Copyright (c) Steve Scherf et al.
# Submitted via: ExactAudioCopy v0.95a4
#
DISCID=9d0b920a
DTITLE=Sting - Brand New Day
DYEAR=1999
DGENRE=
TTITLE0=A Thousand Years
TTITLE1=Desert Rose
TTITLE2=Big Lie Small World
TTITLE3=After the Rain Has Fallen
TTITLE4=Perfect Love... Gone Wrong
TTITLE5=Tomorrow We'll See
TTITLE6=Prelude to the End of the Game
TTITLE7=Fill Her Up
TTITLE8=Ghost Story
TTITLE9=Brand New Day
EXTD=
EXTT0=
EXTT1=
EXTT2=
EXTT3=
EXTT4=
EXTT5=
EXTT6=
EXTT7=
EXTT8=
EXTT9=
PLAYORDER=
